{
  "accessors": [
    {
      "bufferView": 2,
      "componentType": 5126,
      "count": 256,
      "max": [
        0.31733599305152893,
        0.47673898935317993,
        -0.0806410014629364
      ],
      "min": [
        -0.31733599305152893,
        -0.058437999337911606,
        -0.5076500177383423
      ],
      "type": "VEC3"
    },
    {
      "bufferView": 2,
      "byteOffset": 3072,
      "componentType": 5126,
      "count": 256,
      "max": [
        0.9340782165527344,
        0.9938552379608154,
        0.93773353099823
      ],
      "min": [
        -0.9340780973434448,
        -0.9991333484649658,
        -0.9962130188941956
      ],
      "type": "VEC3"
    },
    {
      "bufferView": 1,
      "componentType": 5126,
      "count": 256,
      "max": [
        0.298248827457428,
        0.12648066878318787
      ],
      "min": [
        0.02132176049053669,
        0.02299729734659195
      ],
      "type": "VEC2"
    },
    {
      "bufferView": 0,
      "componentType": 5125,
      "count": 1152,
      "type": "SCALAR"
    },
    {
      "bufferView": 2,
      "byteOffset": 6144,
      "componentType": 5126,
      "count": 1337,
      "max": [
        0.4604490101337433,
        1.4105160236358643,
        -0.1280519962310791
      ],
      "min": [
        -0.4604490101337433,
        -0.0014649999793618917,
        -1.0053009986877441
      ],
      "type": "VEC3"
    },
    {
      "bufferView": 2,
      "byteOffset": 22188,
      "componentType": 5126,
      "count": 1337,
      "max": [
        0.9990183115005493,
        0.9998841285705566,
        0.9973822236061096
      ],
      "min": [
        -0.9990183115005493,
        -0.9983453750610352,
        -0.9989635944366455
      ],
      "type": "VEC3"
    },
    {
      "bufferView": 1,
      "byteOffset": 2048,
      "componentType": 5126,
      "count": 1337,
      "max": [
        0.9933539032936096,
        0.9999002814292908
      ],
      "min": [
        9.965221397578716e-05,
        9.965221397578716e-05
      ],
      "type": "VEC2"
    },
    {
      "bufferView": 0,
      "byteOffset": 4608,
      "componentType": 5125,
      "count": 7944,
      "type": "SCALAR"
    },
    {
      "bufferView": 2,
      "byteOffset": 38232,
      "componentType": 5126,
      "count": 130,
      "max": [
        0.1959719955921173,
        -0.12931400537490845,
        0.05310700088739395
      ],
      "min": [
        -0.1959719955921173,
        -0.20747999846935272,
        -0.10322500020265579
      ],
      "type": "VEC3"
    },
    {
      "bufferView": 2,
      "byteOffset": 39792,
      "componentType": 5126,
      "count": 130,
      "max": [
        0.9807860255241394,
        -0.19507996737957,
        0.9807860255241394
      ],
      "min": [
        -0.9807860255241394,
        -1.0,
        -0.9807860255241394
      ],
      "type": "VEC3"
    },
    {
      "bufferView": 1,
      "byteOffset": 12744,
      "componentType": 5126,
      "count": 130,
      "max": [
        0.4016946256160736,
        0.2193942368030548
      ],
      "min": [
        0.32003873586654663,
        0.13798478245735168
      ],
      "type": "VEC2"
    },
    {
      "bufferView": 0,
      "byteOffset": 36384,
      "componentType": 5125,
      "count": 672,
      "type": "SCALAR"
    },
    {
      "bufferView": 2,
      "byteOffset": 41352,
      "componentType": 5126,
      "count": 543,
      "max": [
        0.37389299273490906,
        0.42944300174713135,
        0.3757419288158417
      ],
      "min": [
        -0.37389299273490906,
        -0.3642579913139343,
        -0.44555699825286865
      ],
      "type": "VEC3"
    },
    {
      "bufferView": 2,
      "byteOffset": 47868,
      "componentType": 5126,
      "count": 543,
      "max": [
        0.995570719242096,
        0.9957619905471802,
        0.9998112916946411
      ],
      "min": [
        -0.995570719242096,
        -0.9996188282966614,
        -0.967442512512207
      ],
      "type": "VEC3"
    },
    {
      "bufferView": 1,
      "byteOffset": 13784,
      "componentType": 5126,
      "count": 543,
      "max": [
        0.9873230457305908,
        0.9747547507286072
      ],
      "min": [
        0.012711048126220703,
        0.01101452112197876
      ],
      "type": "VEC2"
    },
    {
      "bufferView": 0,
      "byteOffset": 39072,
      "componentType": 5125,
      "count": 3180,
      "type": "SCALAR"
    }
  ],
  "asset": {
    "extras": {
      "author": "Michal (https://sketchfab.com/Michal_K)",
      "license": "CC-BY-4.0 (http://creativecommons.org/licenses/by/4.0/)",
      "source": "https://sketchfab.com/3d-models/black-shiba-fde824c094ee4620ab482a6f4a6a3afc",
      "title": "Black shiba"
    },
    "generator": "Sketchfab-12.65.0",
    "version": "2.0"
  },
  "bufferViews": [
    {
      "buffer": 0,
      "byteLength": 51792,
      "name": "floatBufferViews",
      "target": 34963
    },
    {
      "buffer": 0,
      "byteLength": 18128,
      "byteOffset": 51792,
      "byteStride": 8,
      "name": "floatBufferViews",
      "target": 34962
    },
    {
      "buffer": 0,
      "byteLength": 54384,
      "byteOffset": 69920,
      "byteStride": 12,
      "name": "floatBufferViews",
      "target": 34962
    }
  ],
  "buffers": [
    {
      "byteLength": 124304,
      "uri": "scene.bin"
    }
  ],
  "images": [
    {
      "uri": "textures/Material.004_baseColor.png"
    },
    {
      "uri": "textures/Material.002_baseColor.png"
    }
  ],
  "materials": [
    {
      "doubleSided": true,
      "name": "Material.003",
      "pbrMetallicRoughness": {
        "baseColorFactor": [
          0.0436406,
          0.421966,
          0.592578,
          1.0
        ],
        "metallicFactor": 0.0,
        "roughnessFactor": 0.9208762412590756
      }
    },
    {
      "doubleSided": true,
      "name": "Material.004",
      "pbrMetallicRoughness": {
        "baseColorTexture": {
          "index": 0
        },
        "metallicFactor": 0.0,
        "roughnessFactor": 0.8211145618000169
      }
    },
    {
      "doubleSided": true,
      "name": "default",
      "pbrMetallicRoughness": {
        "baseColorFactor": [
          0.0,
          0.0,
          0.0,
          1.0
        ],
        "metallicFactor": 0.0,
        "roughnessFactor": 0.8929713596
      }
    },
    {
      "doubleSided": true,
      "name": "Material.002",
      "pbrMetallicRoughness": {
        "baseColorTexture": {
          "index": 1
        },
        "metallicFactor": 0.0,
        "roughnessFactor": 0.8211145618000169
      }
    }
  ],
  "meshes": [
    {
      "name": "Group18985_Material.003_0",
      "primitives": [
        {
          "attributes": {
            "NORMAL": 1,
            "POSITION": 0,
            "TEXCOORD_0": 2
          },
          "indices": 3,
          "material": 0,
          "mode": 4
        }
      ]
    },
    {
      "name": "Box002_Material.004_0",
      "primitives": [
        {
          "attributes": {
            "NORMAL": 5,
            "POSITION": 4,
            "TEXCOORD_0": 6
          },
          "indices": 7,
          "material": 1,
          "mode": 4
        }
      ]
    },
    {
      "name": "Object001_default_0",
      "primitives": [
        {
          "attributes": {
            "NORMAL": 9,
            "POSITION": 8,
            "TEXCOORD_0": 10
          },
          "indices": 11,
          "material": 2,
          "mode": 4
        }
      ]
    },
    {
      "name": "Box002.001_Material.002_0",
      "primitives": [
        {
          "attributes": {
            "NORMAL": 13,
            "POSITION": 12,
            "TEXCOORD_0": 14
          },
          "indices": 15,
          "material": 3,
          "mode": 4
        }
      ]
    }
  ],
  "nodes": [
    {
      "children": [
        1
      ],
      "matrix": [
        1.0,
        0.0,
        0.0,
        0.0,
        0.0,
        2.220446049250313e-16,
        -1.0,
        0.0,
        0.0,
        1.0,
        2.220446049250313e-16,
        0.0,
        0.0,
        0.0,
        0.0,
        1.0
      ],
      "name": "Sketchfab_model"
    },
    {
      "children": [
        2
      ],
      "matrix": [
        1.0,
        0.0,
        0.0,
        0.0,
        0.0,
        0.0,
        1.0,
        0.0,
        0.0,
        -1.0,
        0.0,
        0.0,
        0.0,
        0.0,
        0.0,
        1.0
      ],
      "name": "SHIBA.fbx"
    },
    {
      "children": [
        3,
        6,
        8,
        10,
        12,
        14
      ],
      "name": "RootNode"
    },
    {
      "children": [
        4
      ],
      "matrix": [
        -29.086466012969506,
        -5.518904334943286,
        -95.51712263095594,
        0.0,
        56.63931168888501,
        79.46723477095061,
        -21.83911557888623,
        0.0,
        77.110090100962,
        -60.45246312143063,
        -19.988339280030054,
        0.0,
        407.6245422363281,
        590.38623046875,
        -100.54539489746094,
        1.0
      ],
      "name": "Light"
    },
    {
      "children": [
        5
      ],
      "matrix": [
        1.0,
        0.0,
        0.0,
        0.0,
        0.0,
        2.220446049250313e-16,
        1.0,
        0.0,
        0.0,
        -1.0,
        2.220446049250313e-16,
        0.0,
        0.0,
        0.0,
        0.0,
        1.0
      ],
      "name": "Object_4"
    },
    {
      "name": "Object_5"
    },
    {
      "children": [
        7
      ],
      "matrix": [
        -65.1558127516791,
        -44.52713915455176,
        -61.417049289096546,
        0.0,
        -32.401349332924404,
        89.53957282709818,
        -30.5420854760369,
        0.0,
        68.59207001076241,
        8.666908837178815e-06,
        -72.76761921184274,
        0.0,
        735.88916015625,
        495.8309326171875,
        692.5791015625,
        1.0
      ],
      "name": "Camera"
    },
    {
      "name": "Object_7"
    },
    {
      "children": [
        9
      ],
      "matrix": [
        87.79411315917969,
        0.0,
        0.0,
        0.0,
        0.0,
        -3.837602725544385e-06,
        -87.7941131591796,
        0.0,
        0.0,
        87.7941131591796,
        -3.837602725544385e-06,
        0.0,
        0.0,
        91.4524917602539,
        0.0,
        1.0
      ],
      "name": "Group18985"
    },
    {
      "mesh": 0,
      "name": "Group18985_Material.003_0"
    },
    {
      "children": [
        11
      ],
      "matrix": [
        87.79411315917969,
        0.0,
        0.0,
        0.0,
        0.0,
        -3.837602725544385e-06,
        -87.7941131591796,
        0.0,
        0.0,
        87.7941131591796,
        -3.837602725544385e-06,
        0.0,
        0.0,
        91.4524917602539,
        0.0,
        1.0
      ],
      "name": "Box002"
    },
    {
      "mesh": 1,
      "name": "Box002_Material.004_0"
    },
    {
      "children": [
        13
      ],
      "matrix": [
        87.79411315917969,
        0.0,
        0.0,
        0.0,
        0.0,
        -3.837602725544385e-06,
        -87.7941131591796,
        0.0,
        0.0,
        87.7941131591796,
        -3.837602725544385e-06,
        0.0,
        0.0,
        91.4524917602539,
        0.0,
        1.0
      ],
      "name": "Object001"
    },
    {
      "mesh": 2,
      "name": "Object001_default_0"
    },
    {
      "children": [
        15
      ],
      "matrix": [
        87.79411315917969,
        0.0,
        0.0,
        0.0,
        0.0,
        -3.837602725544385e-06,
        -87.7941131591796,
        0.0,
        0.0,
        87.7941131591796,
        -3.837602725544385e-06,
        0.0,
        0.0,
        91.4524917602539,
        0.0,
        1.0
      ],
      "name": "Box002.001"
    },
    {
      "mesh": 3,
      "name": "Box002.001_Material.002_0"
    }
  ],
  "samplers": [
    {
      "magFilter": 9729,
      "minFilter": 9987,
      "wrapS": 10497,
      "wrapT": 10497
    }
  ],
  "scene": 0,
  "scenes": [
    {
      "name": "Sketchfab_Scene",
      "nodes": [
        0
      ]
    }
  ],
  "textures": [
    {
      "sampler": 0,
      "source": 0
    },
    {
      "sampler": 0,
      "source": 1
    }
  ]
}
