{
  "accessors": [
    {
      "bufferView": 2,
      "componentType": 5126,
      "count": 272,
      "max": [
        0.31733599305152893,
        0.5076500177383423,
        0.47673898935317993
      ],
      "min": [
        -0.31733599305152893,
        0.08064097166061401,
        -0.058437999337911606
      ],
      "type": "VEC3"
    },
    {
      "bufferView": 2,
      "byteOffset": 3264,
      "componentType": 5126,
      "count": 272,
      "max": [
        0.9341073036193848,
        0.9962123036384583,
        0.9938567280769348
      ],
      "min": [
        -0.9341074228286743,
        -0.9377346038818359,
        -0.9991335272789001
      ],
      "type": "VEC3"
    },
    {
      "bufferView": 1,
      "componentType": 5126,
      "count": 272,
      "max": [
        0.5991618037223816,
        0.9537044167518616
      ],
      "min": [
        0.029139630496501923,
        0.04629569873213768
      ],
      "type": "VEC2"
    },
    {
      "bufferView": 0,
      "componentType": 5125,
      "count": 1152,
      "type": "SCALAR"
    },
    {
      "bufferView": 2,
      "byteOffset": 6528,
      "componentType": 5126,
      "count": 2145,
      "max": [
        0.4604490101337433,
        1.0053009986877441,
        1.4105160236358643
      ],
      "min": [
        -0.4604490101337433,
        -0.3757418990135193,
        -0.3642579913139343
      ],
      "type": "VEC3"
    },
    {
      "bufferView": 2,
      "byteOffset": 32268,
      "componentType": 5126,
      "count": 2145,
      "max": [
        0.9990193247795105,
        0.9989622235298157,
        0.9998841285705566
      ],
      "min": [
        -0.9990193247795105,
        -0.9998112916946411,
        -0.9996182918548584
      ],
      "type": "VEC3"
    },
    {
      "bufferView": 1,
      "byteOffset": 2176,
      "componentType": 5126,
      "count": 2145,
      "max": [
        0.9876394867897034,
        0.9898384213447571
      ],
      "min": [
        0.011742169968783855,
        0.011792420409619808
      ],
      "type": "VEC2"
    },
    {
      "bufferView": 0,
      "byteOffset": 4608,
      "componentType": 5125,
      "count": 11124,
      "type": "SCALAR"
    },
    {
      "bufferView": 2,
      "byteOffset": 58008,
      "componentType": 5126,
      "count": 130,
      "max": [
        0.1959719955921173,
        0.10322500020265579,
        -0.12931400537490845
      ],
      "min": [
        -0.1959719955921173,
        -0.05310695990920067,
        -0.20747999846935272
      ],
      "type": "VEC3"
    },
    {
      "bufferView": 2,
      "byteOffset": 59568,
      "componentType": 5126,
      "count": 130,
      "max": [
        0.9807859063148499,
        0.9807857871055603,
        -0.1950778067111969
      ],
      "min": [
        -0.9807859063148499,
        -0.9807859063148499,
        -1.0
      ],
      "type": "VEC3"
    },
    {
      "bufferView": 1,
      "byteOffset": 19336,
      "componentType": 5126,
      "count": 130,
      "max": [
        0.4016945958137512,
        0.8620153069496155
      ],
      "min": [
        0.32003870606422424,
        0.7806057929992676
      ],
      "type": "VEC2"
    },
    {
      "bufferView": 0,
      "byteOffset": 49104,
      "componentType": 5125,
      "count": 672,
      "type": "SCALAR"
    }
  ],
  "asset": {
    "extras": {
      "author": "Elbolillo (https://sketchfab.com/Elbolilloduro)",
      "license": "CC-BY-4.0 (http://creativecommons.org/licenses/by/4.0/)",
      "source": "https://sketchfab.com/3d-models/shibatexturingchallenge-0566573fdc5845ee99822c656e60c253",
      "title": "ShibaTexturingChallenge"
    },
    "generator": "Sketchfab-12.66.0",
    "version": "2.0"
  },
  "bufferViews": [
    {
      "buffer": 0,
      "byteLength": 51792,
      "name": "floatBufferViews",
      "target": 34963
    },
    {
      "buffer": 0,
      "byteLength": 20376,
      "byteOffset": 51792,
      "byteStride": 8,
      "name": "floatBufferViews",
      "target": 34962
    },
    {
      "buffer": 0,
      "byteLength": 61128,
      "byteOffset": 72168,
      "byteStride": 12,
      "name": "floatBufferViews",
      "target": 34962
    }
  ],
  "buffers": [
    {
      "byteLength": 133296,
      "uri": "scene.bin"
    }
  ],
  "images": [
    {
      "uri": "textures/Material.001_baseColor.png"
    },
    {
      "uri": "textures/Material_baseColor.png"
    },
    {
      "uri": "textures/Material.002_baseColor.png"
    }
  ],
  "materials": [
    {
      "doubleSided": true,
      "name": "Material.001",
      "pbrMetallicRoughness": {
        "baseColorTexture": {
          "index": 0
        },
        "metallicFactor": 0.0,
        "roughnessFactor": 0.6
      }
    },
    {
      "doubleSided": true,
      "name": "Material",
      "pbrMetallicRoughness": {
        "baseColorTexture": {
          "index": 1
        },
        "metallicFactor": 0.0,
        "roughnessFactor": 0.46380320911539563
      }
    },
    {
      "doubleSided": true,
      "name": "Material.002",
      "pbrMetallicRoughness": {
        "baseColorTexture": {
          "index": 2
        },
        "metallicFactor": 0.0,
        "roughnessFactor": 0.6
      }
    }
  ],
  "meshes": [
    {
      "name": "Material_001-material",
      "primitives": [
        {
          "attributes": {
            "NORMAL": 1,
            "POSITION": 0,
            "TEXCOORD_0": 2
          },
          "indices": 3,
          "material": 0,
          "mode": 4
        }
      ]
    },
    {
      "name": "Material-material",
      "primitives": [
        {
          "attributes": {
            "NORMAL": 5,
            "POSITION": 4,
            "TEXCOORD_0": 6
          },
          "indices": 7,
          "material": 1,
          "mode": 4
        }
      ]
    },
    {
      "name": "Material_002-material",
      "primitives": [
        {
          "attributes": {
            "NORMAL": 9,
            "POSITION": 8,
            "TEXCOORD_0": 10
          },
          "indices": 11,
          "material": 2,
          "mode": 4
        }
      ]
    }
  ],
  "nodes": [
    {
      "children": [
        1
      ],
      "matrix": [
        1.0,
        0.0,
        0.0,
        0.0,
        0.0,
        2.220446049250313e-16,
        -1.0,
        0.0,
        0.0,
        1.0,
        2.220446049250313e-16,
        0.0,
        0.0,
        0.0,
        0.0,
        1.0
      ],
      "name": "Sketchfab_model"
    },
    {
      "children": [
        2
      ],
      "name": "Collada visual scene group"
    },
    {
      "children": [
        3
      ],
      "matrix": [
        1.0,
        0.0,
        0.0,
        0.0,
        0.0,
        -1.34359e-07,
        -1.0,
        0.0,
        0.0,
        1.0,
        -1.34359e-07,
        0.0,
        0.0,
        0.0,
        1.287803,
        1.0
      ],
      "name": "RootNode"
    },
    {
      "children": [
        4
      ],
      "matrix": [
        1.0,
        0.0,
        0.0,
        0.0,
        0.0,
        1.0,
        0.0,
        0.0,
        0.0,
        0.0,
        1.0,
        0.0,
        0.0,
        -1.19209e-07,
        -1.42109e-14,
        1.0
      ],
      "name": "RootNode"
    },
    {
      "children": [
        5
      ],
      "matrix": [
        1.0,
        0.0,
        0.0,
        0.0,
        0.0,
        -1.34359e-07,
        1.0,
        0.0,
        0.0,
        -1.0,
        -1.34359e-07,
        0.0,
        0.0,
        -1.19209e-07,
        -1.42109e-14,
        1.0
      ],
      "name": "1.FBX"
    },
    {
      "children": [
        6,
        9,
        12
      ],
      "matrix": [
        1.0,
        0.0,
        0.0,
        0.0,
        0.0,
        1.0,
        0.0,
        0.0,
        0.0,
        0.0,
        1.0,
        0.0,
        0.0,
        0.0,
        -1.19209e-07,
        1.0
      ],
      "name": "RootNode"
    },
    {
      "children": [
        7
      ],
      "matrix": [
        1.0,
        0.0,
        0.0,
        0.0,
        0.0,
        -1.34359e-07,
        -1.0,
        0.0,
        0.0,
        1.0,
        -1.34359e-07,
        0.0,
        0.0,
        0.0,
        -1.19209e-07,
        1.0
      ],
      "name": "Group18985"
    },
    {
      "children": [
        8
      ],
      "matrix": [
        1.0,
        0.0,
        0.0,
        0.0,
        0.0,
        1.0,
        -1.42109e-14,
        0.0,
        0.0,
        1.42109e-14,
        1.0,
        0.0,
        0.0,
        0.0,
        0.0,
        1.0
      ],
      "name": "Group18985_default_0"
    },
    {
      "mesh": 0,
      "name": "Material_001-material"
    },
    {
      "children": [
        10
      ],
      "matrix": [
        1.0,
        0.0,
        0.0,
        0.0,
        0.0,
        -1.34359e-07,
        -1.0,
        0.0,
        0.0,
        1.0,
        -1.34359e-07,
        0.0,
        0.0,
        0.0,
        -1.19209e-07,
        1.0
      ],
      "name": "Box002"
    },
    {
      "children": [
        11
      ],
      "matrix": [
        1.0,
        0.0,
        0.0,
        0.0,
        0.0,
        1.0,
        -1.42109e-14,
        0.0,
        0.0,
        1.42109e-14,
        1.0,
        0.0,
        0.0,
        0.0,
        0.0,
        1.0
      ],
      "name": "Box002_default_0"
    },
    {
      "mesh": 1,
      "name": "Material-material"
    },
    {
      "children": [
        13
      ],
      "matrix": [
        1.0,
        0.0,
        0.0,
        0.0,
        0.0,
        -1.34359e-07,
        -1.0,
        0.0,
        0.0,
        1.0,
        -1.34359e-07,
        0.0,
        0.0,
        0.0,
        -1.19209e-07,
        1.0
      ],
      "name": "Object001"
    },
    {
      "children": [
        14
      ],
      "matrix": [
        1.0,
        0.0,
        0.0,
        0.0,
        0.0,
        1.0,
        -1.42109e-14,
        0.0,
        0.0,
        1.42109e-14,
        1.0,
        0.0,
        0.0,
        0.0,
        0.0,
        1.0
      ],
      "name": "Object001_default_0"
    },
    {
      "mesh": 2,
      "name": "Material_002-material"
    }
  ],
  "samplers": [
    {
      "magFilter": 9729,
      "minFilter": 9987,
      "wrapS": 10497,
      "wrapT": 10497
    }
  ],
  "scene": 0,
  "scenes": [
    {
      "name": "Sketchfab_Scene",
      "nodes": [
        0
      ]
    }
  ],
  "textures": [
    {
      "sampler": 0,
      "source": 0
    },
    {
      "sampler": 0,
      "source": 1
    },
    {
      "sampler": 0,
      "source": 2
    }
  ]
}
