{
  "accessors": [
    {
      "bufferView": 2,
      "componentType": 5126,
      "count": 2547,
      "max": [
        0.4604490101337433,
        1.0053009986877441,
        1.4105160236358643
      ],
      "min": [
        -0.4604490101337433,
        -0.3757419288158417,
        -0.3642579913139343
      ],
      "type": "VEC3"
    },
    {
      "bufferView": 2,
      "byteOffset": 30564,
      "componentType": 5126,
      "count": 2547,
      "max": [
        0.9990193247795105,
        0.9989622235298157,
        0.9998840689659119
      ],
      "min": [
        -0.9990193247795105,
        -0.9998113512992859,
        -1.0
      ],
      "type": "VEC3"
    },
    {
      "bufferView": 1,
      "componentType": 5126,
      "count": 2547,
      "max": [
        0.9876394867897034,
        0.9898383617401123
      ],
      "min": [
        0.011742204427719116,
        0.011792421340942383
      ],
      "type": "VEC2"
    },
    {
      "bufferView": 0,
      "componentType": 5125,
      "count": 12948,
      "type": "SCALAR"
    }
  ],
  "asset": {
    "extras": {
      "author": "Peixe do Blender (https://sketchfab.com/PeixedoBlender)",
      "license": "CC-BY-4.0 (http://creativecommons.org/licenses/by/4.0/)",
      "source": "https://sketchfab.com/3d-models/bodyguard-shiba-7ebaaf4347034c35a7a5aa83919c2ca3",
      "title": "Bodyguard Shiba"
    },
    "generator": "Sketchfab-12.68.0",
    "version": "2.0"
  },
  "bufferViews": [
    {
      "buffer": 0,
      "byteLength": 51792,
      "name": "floatBufferViews",
      "target": 34963
    },
    {
      "buffer": 0,
      "byteLength": 20376,
      "byteOffset": 51792,
      "byteStride": 8,
      "name": "floatBufferViews",
      "target": 34962
    },
    {
      "buffer": 0,
      "byteLength": 61128,
      "byteOffset": 72168,
      "byteStride": 12,
      "name": "floatBufferViews",
      "target": 34962
    }
  ],
  "buffers": [
    {
      "byteLength": 133296,
      "uri": "scene.bin"
    }
  ],
  "extensionsUsed": [
    "KHR_materials_unlit"
  ],
  "images": [
    {
      "uri": "textures/default.001_baseColor.png"
    }
  ],
  "materials": [
    {
      "extensions": {
        "KHR_materials_unlit": {}
      },
      "name": "default.001",
      "pbrMetallicRoughness": {
        "baseColorTexture": {
          "index": 0
        },
        "metallicFactor": 0.0
      }
    }
  ],
  "meshes": [
    {
      "name": "Group18985_default_0_default.001_0",
      "primitives": [
        {
          "attributes": {
            "NORMAL": 1,
            "POSITION": 0,
            "TEXCOORD_0": 2
          },
          "indices": 3,
          "material": 0,
          "mode": 4
        }
      ]
    }
  ],
  "nodes": [
    {
      "children": [
        1
      ],
      "matrix": [
        1.0,
        0.0,
        0.0,
        0.0,
        0.0,
        3.828568672208042e-16,
        -1.0,
        0.0,
        0.0,
        1.0,
        3.828568672208042e-16,
        0.0,
        0.0,
        2.0488253085204633e-06,
        -5.450155526887097e-07,
        1.0
      ],
      "name": "Sketchfab_model"
    },
    {
      "children": [
        2
      ],
      "matrix": [
        1.0,
        0.0,
        0.0,
        0.0,
        0.0,
        0.0,
        1.0,
        0.0,
        0.0,
        -1.0,
        0.0,
        0.0,
        0.0,
        0.0,
        0.0,
        1.0
      ],
      "name": "9e2ec42717a9481b96b645537dabee06.fbx"
    },
    {
      "children": [
        3
      ],
      "name": "RootNode"
    },
    {
      "children": [
        4
      ],
      "matrix": [
        100.0,
        0.0,
        0.0,
        0.0,
        0.0,
        -100.00001525878795,
        1.5099582213796756e-05,
        0.0,
        0.0,
        -1.5099582213796756e-05,
        -100.00001525878795,
        0.0,
        0.0,
        0.0,
        0.0,
        1.0
      ],
      "name": "RootNode (gltf orientation matrix)"
    },
    {
      "children": [
        5
      ],
      "name": "RootNode (model correction matrix)"
    },
    {
      "children": [
        6
      ],
      "matrix": [
        1.0,
        0.0,
        0.0,
        0.0,
        0.0,
        -1.6292069881348986e-07,
        1.0000001192092762,
        0.0,
        0.0,
        -1.0000001192092762,
        -1.6292069881348986e-07,
        0.0,
        0.0,
        0.0,
        0.0,
        1.0
      ],
      "name": "1.FBX"
    },
    {
      "children": [
        7
      ],
      "matrix": [
        1.0,
        0.0,
        0.0,
        0.0,
        0.0,
        1.0,
        -1.6543612251060557e-24,
        0.0,
        0.0,
        1.6543612251060557e-24,
        1.0,
        0.0,
        0.0,
        0.0,
        0.0,
        1.0
      ],
      "name": "RootNode"
    },
    {
      "children": [
        8
      ],
      "matrix": [
        1.0,
        0.0,
        0.0,
        0.0,
        0.0,
        -1.6292069881348986e-07,
        -1.0000001192092762,
        0.0,
        0.0,
        1.0000001192092762,
        -1.6292069881348986e-07,
        0.0,
        0.0,
        0.0,
        0.0,
        1.0
      ],
      "name": "Group18985"
    },
    {
      "children": [
        9
      ],
      "matrix": [
        1.0,
        0.0,
        0.0,
        0.0,
        0.0,
        1.0,
        -1.4210854715202e-14,
        0.0,
        0.0,
        1.4210854715202e-14,
        1.0,
        0.0,
        0.0,
        0.0,
        0.0,
        1.0
      ],
      "name": "Group18985_default_0"
    },
    {
      "mesh": 0,
      "name": "Group18985_default_0_default.001_0"
    }
  ],
  "samplers": [
    {
      "magFilter": 9729,
      "minFilter": 9987,
      "wrapS": 10497,
      "wrapT": 10497
    }
  ],
  "scene": 0,
  "scenes": [
    {
      "name": "Sketchfab_Scene",
      "nodes": [
        0
      ]
    }
  ],
  "textures": [
    {
      "sampler": 0,
      "source": 0
    }
  ]
}
