{
  "accessors": [
    {
      "bufferView": 2,
      "componentType": 5126,
      "count": 2145,
      "max": [
        0.4604490101337433,
        0.3757419288158417,
        0.3642579913139343
      ],
      "min": [
        -0.4604490101337433,
        -1.0053009986877441,
        -1.4105160236358643
      ],
      "type": "VEC3"
    },
    {
      "bufferView": 2,
      "byteOffset": 25740,
      "componentType": 5126,
      "count": 2145,
      "max": [
        0.999636173248291,
        0.998918354511261,
        0.9999103546142578
      ],
      "min": [
        -0.999636173248291,
        -0.9996713399887085,
        -0.9921351075172424
      ],
      "type": "VEC3"
    },
    {
      "bufferView": 1,
      "componentType": 5126,
      "count": 2145,
      "max": [
        0.9876394867897034,
        0.9898383617401123
      ],
      "min": [
        0.011742204427719116,
        0.011792421340942383
      ],
      "type": "VEC2"
    },
    {
      "bufferView": 0,
      "componentType": 5125,
      "count": 11124,
      "type": "SCALAR"
    },
    {
      "bufferView": 2,
      "byteOffset": 51480,
      "componentType": 5126,
      "count": 272,
      "max": [
        0.31733599305152893,
        -0.0806410014629364,
        0.058437999337911606
      ],
      "min": [
        -0.31733599305152893,
        -0.5076500177383423,
        -0.47673898935317993
      ],
      "type": "VEC3"
    },
    {
      "bufferView": 2,
      "byteOffset": 54744,
      "componentType": 5126,
      "count": 272,
      "max": [
        0.9977801442146301,
        0.9956084489822388,
        0.9956285953521729
      ],
      "min": [
        -0.9977801442146301,
        -0.9962995648384094,
        -0.9653404951095581
      ],
      "type": "VEC3"
    },
    {
      "bufferView": 1,
      "byteOffset": 17160,
      "componentType": 5126,
      "count": 272,
      "max": [
        0.298248827457428,
        0.9770026803016663
      ],
      "min": [
        0.02132176049053669,
        0.8735193014144897
      ],
      "type": "VEC2"
    },
    {
      "bufferView": 0,
      "byteOffset": 44496,
      "componentType": 5125,
      "count": 1152,
      "type": "SCALAR"
    },
    {
      "bufferView": 2,
      "byteOffset": 58008,
      "componentType": 5126,
      "count": 130,
      "max": [
        0.1959719955921173,
        0.05310700088739395,
        0.20747999846935272
      ],
      "min": [
        -0.1959719955921173,
        -0.10322500020265579,
        0.12931400537490845
      ],
      "type": "VEC3"
    },
    {
      "bufferView": 2,
      "byteOffset": 59568,
      "componentType": 5126,
      "count": 130,
      "max": [
        0.9807879328727722,
        0.9807879328727722,
        1.0
      ],
      "min": [
        -0.9807879328727722,
        -0.9807879328727722,
        0.1950763612985611
      ],
      "type": "VEC3"
    },
    {
      "bufferView": 1,
      "byteOffset": 19336,
      "componentType": 5126,
      "count": 130,
      "max": [
        0.4016946256160736,
        0.8620152473449707
      ],
      "min": [
        0.32003873586654663,
        0.7806057929992676
      ],
      "type": "VEC2"
    },
    {
      "bufferView": 0,
      "byteOffset": 49104,
      "componentType": 5125,
      "count": 672,
      "type": "SCALAR"
    }
  ],
  "asset": {
    "extras": {
      "author": "lulu9green (https://sketchfab.com/lulu9green)",
      "license": "CC-BY-4.0 (http://creativecommons.org/licenses/by/4.0/)",
      "source": "https://sketchfab.com/3d-models/mars-mission-specialist-nugget-d65c0d7241fb4315ba15de17a84f8b36",
      "title": "Mars Mission Specialist Nugget"
    },
    "generator": "Sketchfab-12.68.0",
    "version": "2.0"
  },
  "bufferViews": [
    {
      "buffer": 0,
      "byteLength": 51792,
      "name": "floatBufferViews",
      "target": 34963
    },
    {
      "buffer": 0,
      "byteLength": 20376,
      "byteOffset": 51792,
      "byteStride": 8,
      "name": "floatBufferViews",
      "target": 34962
    },
    {
      "buffer": 0,
      "byteLength": 61128,
      "byteOffset": 72168,
      "byteStride": 12,
      "name": "floatBufferViews",
      "target": 34962
    }
  ],
  "buffers": [
    {
      "byteLength": 133296,
      "uri": "scene.bin"
    }
  ],
  "extensionsUsed": [
    "KHR_materials_clearcoat"
  ],
  "images": [
    {
      "uri": "textures/Material.001_baseColor.png"
    },
    {
      "uri": "textures/Material.001_metallicRoughness.png"
    },
    {
      "uri": "textures/Material.001_emissive.png"
    }
  ],
  "materials": [
    {
      "doubleSided": true,
      "emissiveFactor": [
        1.0,
        1.0,
        1.0
      ],
      "emissiveTexture": {
        "index": 2
      },
      "name": "Material.001",
      "pbrMetallicRoughness": {
        "baseColorTexture": {
          "index": 0
        },
        "metallicFactor": 0.0,
        "metallicRoughnessTexture": {
          "index": 1
        }
      }
    },
    {
      "doubleSided": true,
      "emissiveFactor": [
        1.0,
        1.0,
        1.0
      ],
      "emissiveTexture": {
        "index": 2
      },
      "extensions": {
        "KHR_materials_clearcoat": {
          "clearcoatFactor": 1.0,
          "clearcoatRoughnessFactor": 0.04
        }
      },
      "name": "default",
      "pbrMetallicRoughness": {
        "baseColorTexture": {
          "index": 0
        },
        "metallicFactor": 0.0,
        "metallicRoughnessTexture": {
          "index": 1
        }
      }
    }
  ],
  "meshes": [
    {
      "name": "Object_0",
      "primitives": [
        {
          "attributes": {
            "NORMAL": 1,
            "POSITION": 0,
            "TEXCOORD_0": 2
          },
          "indices": 3,
          "material": 0,
          "mode": 4
        }
      ]
    },
    {
      "name": "Object_1",
      "primitives": [
        {
          "attributes": {
            "NORMAL": 5,
            "POSITION": 4,
            "TEXCOORD_0": 6
          },
          "indices": 7,
          "material": 1,
          "mode": 4
        }
      ]
    },
    {
      "name": "Object_2",
      "primitives": [
        {
          "attributes": {
            "NORMAL": 9,
            "POSITION": 8,
            "TEXCOORD_0": 10
          },
          "indices": 11,
          "material": 1,
          "mode": 4
        }
      ]
    }
  ],
  "nodes": [
    {
      "children": [
        1
      ],
      "matrix": [
        0.3636363744735718,
        0.0,
        0.0,
        0.0,
        0.0,
        8.074349510635498e-17,
        -0.3636363744735718,
        0.0,
        0.0,
        0.3636363744735718,
        8.074349510635498e-17,
        0.0,
        0.0,
        0.0,
        0.0,
        1.0
      ],
      "name": "Sketchfab_model"
    },
    {
      "children": [
        2
      ],
      "name": "root"
    },
    {
      "children": [
        3
      ],
      "matrix": [
        1.0,
        0.0,
        0.0,
        0.0,
        0.0,
        2.220446049250313e-16,
        1.0,
        0.0,
        0.0,
        -1.0,
        2.220446049250313e-16,
        0.0,
        0.0,
        0.0,
        0.0,
        1.0
      ],
      "name": "GLTF_SceneRootNode"
    },
    {
      "children": [
        4,
        7,
        10
      ],
      "matrix": [
        1.0,
        0.0,
        0.0,
        0.0,
        0.0,
        -1.685873969314855e-07,
        0.9999999999999858,
        0.0,
        0.0,
        -0.9999999999999858,
        -1.685873969314855e-07,
        0.0,
        0.0,
        0.0,
        0.0,
        1.0
      ],
      "name": "Shiba_8"
    },
    {
      "children": [
        5
      ],
      "matrix": [
        1.0,
        0.0,
        -0.0,
        0.0,
        -0.0,
        0.0,
        -1.0,
        0.0,
        0.0,
        1.0,
        0.0,
        0.0,
        0.0,
        0.0,
        0.0,
        1.0
      ],
      "name": "Box002_3"
    },
    {
      "children": [
        6
      ],
      "name": "Box002_default_0_2"
    },
    {
      "mesh": 0,
      "name": "Object_6"
    },
    {
      "children": [
        8
      ],
      "matrix": [
        1.0,
        0.0,
        -0.0,
        0.0,
        -0.0,
        0.0,
        -1.0,
        0.0,
        0.0,
        1.0,
        0.0,
        0.0,
        0.0,
        0.0,
        0.0,
        1.0
      ],
      "name": "Group18985_5"
    },
    {
      "children": [
        9
      ],
      "name": "Group18985_default_0_4"
    },
    {
      "mesh": 1,
      "name": "Object_9"
    },
    {
      "children": [
        11
      ],
      "matrix": [
        1.0,
        0.0,
        -0.0,
        0.0,
        -0.0,
        0.0,
        -1.0,
        0.0,
        0.0,
        1.0,
        0.0,
        0.0,
        0.0,
        0.0,
        0.0,
        1.0
      ],
      "name": "Object001_7"
    },
    {
      "children": [
        12
      ],
      "name": "Object001_default_0_6"
    },
    {
      "mesh": 2,
      "name": "Object_12"
    }
  ],
  "samplers": [
    {
      "magFilter": 9729,
      "minFilter": 9987,
      "wrapS": 10497,
      "wrapT": 10497
    }
  ],
  "scene": 0,
  "scenes": [
    {
      "name": "Sketchfab_Scene",
      "nodes": [
        0
      ]
    }
  ],
  "textures": [
    {
      "sampler": 0,
      "source": 0
    },
    {
      "sampler": 0,
      "source": 1
    },
    {
      "sampler": 0,
      "source": 2
    }
  ]
}
