{
  "accessors": [
    {
      "bufferView": 2,
      "componentType": 5126,
      "count": 2531,
      "max": [
        46.04490280151367,
        141.0515899658203,
        137.14634704589844
      ],
      "min": [
        -46.04490280151367,
        -36.425811767578125,
        -0.9579479694366455
      ],
      "type": "VEC3"
    },
    {
      "bufferView": 2,
      "byteOffset": 30372,
      "componentType": 5126,
      "count": 2531,
      "max": [
        0.9990193843841553,
        0.9998907446861267,
        0.9998117089271545
      ],
      "min": [
        -0.9990193247795105,
        -1.0,
        -0.9989622831344604
      ],
      "type": "VEC3"
    },
    {
      "bufferView": 3,
      "componentType": 5126,
      "count": 2531,
      "max": [
        1.0,
        0.9995712637901306,
        0.999143123626709,
        1.0
      ],
      "min": [
        -1.0,
        -0.9995611310005188,
        -0.9938566088676453,
        -1.0
      ],
      "type": "VEC4"
    },
    {
      "bufferView": 1,
      "componentType": 5126,
      "count": 2531,
      "max": [
        0.9876394867897034,
        0.9898383617401123
      ],
      "min": [
        0.011742204427719116,
        0.011792421340942383
      ],
      "type": "VEC2"
    },
    {
      "bufferView": 0,
      "componentType": 5125,
      "count": 12948,
      "type": "SCALAR"
    }
  ],
  "asset": {
    "extras": {
      "author": "Karolina Renkiewicz (https://sketchfab.com/KarolinaRenkiewicz)",
      "license": "CC-BY-4.0 (http://creativecommons.org/licenses/by/4.0/)",
      "source": "https://sketchfab.com/3d-models/harry-shiba-potter-cece2291f61948bb85c4bde0268f8568",
      "title": "Harry Shiba Potter ⚡"
    },
    "generator": "Sketchfab-12.65.0",
    "version": "2.0"
  },
  "bufferViews": [
    {
      "buffer": 0,
      "byteLength": 51792,
      "name": "floatBufferViews",
      "target": 34963
    },
    {
      "buffer": 0,
      "byteLength": 20248,
      "byteOffset": 51792,
      "byteStride": 8,
      "name": "floatBufferViews",
      "target": 34962
    },
    {
      "buffer": 0,
      "byteLength": 60744,
      "byteOffset": 72040,
      "byteStride": 12,
      "name": "floatBufferViews",
      "target": 34962
    },
    {
      "buffer": 0,
      "byteLength": 40496,
      "byteOffset": 132784,
      "byteStride": 16,
      "name": "floatBufferViews",
      "target": 34962
    }
  ],
  "buffers": [
    {
      "byteLength": 173280,
      "uri": "scene.bin"
    }
  ],
  "images": [
    {
      "uri": "textures/Shiba_baseColor.png"
    },
    {
      "uri": "textures/Shiba_metallicRoughness.png"
    },
    {
      "uri": "textures/Shiba_normal.png"
    }
  ],
  "materials": [
    {
      "doubleSided": true,
      "name": "Shiba",
      "normalTexture": {
        "index": 2
      },
      "occlusionTexture": {
        "index": 1
      },
      "pbrMetallicRoughness": {
        "baseColorTexture": {
          "index": 0
        },
        "metallicRoughnessTexture": {
          "index": 1
        }
      }
    }
  ],
  "meshes": [
    {
      "name": "Shiba_Shiba_0",
      "primitives": [
        {
          "attributes": {
            "NORMAL": 1,
            "POSITION": 0,
            "TANGENT": 2,
            "TEXCOORD_0": 3
          },
          "indices": 4,
          "material": 0,
          "mode": 4
        }
      ]
    }
  ],
  "nodes": [
    {
      "children": [
        1
      ],
      "matrix": [
        1.0,
        0.0,
        0.0,
        0.0,
        0.0,
        2.220446049250313e-16,
        -1.0,
        0.0,
        0.0,
        1.0,
        2.220446049250313e-16,
        0.0,
        0.0,
        0.0,
        0.0,
        1.0
      ],
      "name": "Sketchfab_model"
    },
    {
      "children": [
        2
      ],
      "matrix": [
        1.0,
        0.0,
        0.0,
        0.0,
        0.0,
        0.0,
        1.0,
        0.0,
        0.0,
        -1.0,
        0.0,
        0.0,
        0.0,
        0.0,
        0.0,
        1.0
      ],
      "name": "67283fccc1894bbb95bf78736204a5d7.fbx"
    },
    {
      "children": [
        3
      ],
      "name": "RootNode"
    },
    {
      "children": [
        4
      ],
      "matrix": [
        1.0,
        2.220445916901415e-16,
        -2.220446843343701e-16,
        0.0,
        -2.2204467462849616e-16,
        -1.6292069881348986e-07,
        -1.0000001192092762,
        0.0,
        -2.220446543355917e-16,
        1.0000001192092762,
        -1.6292069881348986e-07,
        0.0,
        0.0,
        0.0,
        0.0,
        1.0
      ],
      "name": "Shiba"
    },
    {
      "mesh": 0,
      "name": "Shiba_Shiba_0"
    }
  ],
  "samplers": [
    {
      "magFilter": 9729,
      "minFilter": 9987,
      "wrapS": 10497,
      "wrapT": 10497
    }
  ],
  "scene": 0,
  "scenes": [
    {
      "name": "Sketchfab_Scene",
      "nodes": [
        0
      ]
    }
  ],
  "textures": [
    {
      "sampler": 0,
      "source": 0
    },
    {
      "sampler": 0,
      "source": 1
    },
    {
      "sampler": 0,
      "source": 2
    }
  ]
}
