{
  "accessors": [
    {
      "bufferView": 2,
      "componentType": 5126,
      "count": 334,
      "max": [
        0.31733599305152893,
        0.47673898935317993,
        -0.0806410014629364
      ],
      "min": [
        -0.31733599305152893,
        -0.058437999337911606,
        -0.5076500177383423
      ],
      "type": "VEC3"
    },
    {
      "bufferView": 2,
      "byteOffset": 4008,
      "componentType": 5126,
      "count": 334,
      "max": [
        0.9340780973434448,
        0.9938551783561707,
        0.9377336502075195
      ],
      "min": [
        -0.9340780973434448,
        -0.9991333484649658,
        -0.9962129592895508
      ],
      "type": "VEC3"
    },
    {
      "bufferView": 1,
      "componentType": 5126,
      "count": 334,
      "max": [
        0.556458592414856,
        0.46681445837020874
      ],
      "min": [
        0.002362579107284546,
        0.002049282193183899
      ],
      "type": "VEC2"
    },
    {
      "bufferView": 1,
      "byteOffset": 2672,
      "componentType": 5126,
      "count": 334,
      "max": [
        0.556458592414856,
        0.46681445837020874
      ],
      "min": [
        0.002362579107284546,
        0.002049282193183899
      ],
      "type": "VEC2"
    },
    {
      "bufferView": 1,
      "byteOffset": 5344,
      "componentType": 5126,
      "count": 334,
      "max": [
        0.556458592414856,
        0.46681445837020874
      ],
      "min": [
        0.002362579107284546,
        0.002049282193183899
      ],
      "type": "VEC2"
    },
    {
      "bufferView": 0,
      "componentType": 5125,
      "count": 1152,
      "type": "SCALAR"
    },
    {
      "bufferView": 2,
      "byteOffset": 8016,
      "componentType": 5126,
      "count": 2200,
      "max": [
        0.4604490101337433,
        1.4105160236358643,
        0.3757419288158417
      ],
      "min": [
        -0.4604490101337433,
        -0.3642579913139343,
        -1.0053009986877441
      ],
      "type": "VEC3"
    },
    {
      "bufferView": 2,
      "byteOffset": 34416,
      "componentType": 5126,
      "count": 2200,
      "max": [
        0.9990183115005493,
        0.9998841285705566,
        0.9998112916946411
      ],
      "min": [
        -0.9990183115005493,
        -0.9996188282966614,
        -0.9989636540412903
      ],
      "type": "VEC3"
    },
    {
      "bufferView": 1,
      "byteOffset": 8016,
      "componentType": 5126,
      "count": 2200,
      "max": [
        0.6064885854721069,
        0.5424436330795288
      ],
      "min": [
        0.0005000084638595581,
        0.000585407018661499
      ],
      "type": "VEC2"
    },
    {
      "bufferView": 1,
      "byteOffset": 25616,
      "componentType": 5126,
      "count": 2200,
      "max": [
        0.6064885854721069,
        0.5424436330795288
      ],
      "min": [
        0.0005000084638595581,
        0.000585407018661499
      ],
      "type": "VEC2"
    },
    {
      "bufferView": 1,
      "byteOffset": 43216,
      "componentType": 5126,
      "count": 2200,
      "max": [
        0.6064885854721069,
        0.5424436330795288
      ],
      "min": [
        0.0005000084638595581,
        0.000585407018661499
      ],
      "type": "VEC2"
    },
    {
      "bufferView": 0,
      "byteOffset": 4608,
      "componentType": 5125,
      "count": 11124,
      "type": "SCALAR"
    },
    {
      "bufferView": 2,
      "byteOffset": 60816,
      "componentType": 5126,
      "count": 130,
      "max": [
        0.1959719955921173,
        -0.12931400537490845,
        0.05310700088739395
      ],
      "min": [
        -0.1959719955921173,
        -0.20747999846935272,
        -0.10322500020265579
      ],
      "type": "VEC3"
    },
    {
      "bufferView": 2,
      "byteOffset": 62376,
      "componentType": 5126,
      "count": 130,
      "max": [
        0.9807860255241394,
        -0.1950799822807312,
        0.9807860255241394
      ],
      "min": [
        -0.9807860255241394,
        -1.0,
        -0.9807860255241394
      ],
      "type": "VEC3"
    },
    {
      "bufferView": 1,
      "byteOffset": 60816,
      "componentType": 5126,
      "count": 130,
      "max": [
        0.4016946256160736,
        0.2193942368030548
      ],
      "min": [
        0.32003873586654663,
        0.13798478245735168
      ],
      "type": "VEC2"
    },
    {
      "bufferView": 1,
      "byteOffset": 61856,
      "componentType": 5126,
      "count": 130,
      "max": [
        0.4016946256160736,
        0.2193942368030548
      ],
      "min": [
        0.32003873586654663,
        0.13798478245735168
      ],
      "type": "VEC2"
    },
    {
      "bufferView": 1,
      "byteOffset": 62896,
      "componentType": 5126,
      "count": 130,
      "max": [
        0.4016946256160736,
        0.2193942368030548
      ],
      "min": [
        0.32003873586654663,
        0.13798478245735168
      ],
      "type": "VEC2"
    },
    {
      "bufferView": 0,
      "byteOffset": 49104,
      "componentType": 5125,
      "count": 672,
      "type": "SCALAR"
    },
    {
      "bufferView": 2,
      "byteOffset": 63936,
      "componentType": 5126,
      "count": 5533,
      "max": [
        7.394479751586914,
        10.309908866882324,
        2.401914596557617
      ],
      "min": [
        -7.394479751586914,
        -0.0019350051879882813,
        -2.2021005153656006
      ],
      "type": "VEC3"
    },
    {
      "bufferView": 2,
      "byteOffset": 130332,
      "componentType": 5126,
      "count": 5533,
      "max": [
        0.9997379183769226,
        0.9926158785820007,
        0.9997801780700684
      ],
      "min": [
        -0.9997379183769226,
        -0.9994881749153137,
        -0.9999704957008362
      ],
      "type": "VEC3"
    },
    {
      "bufferView": 1,
      "byteOffset": 63936,
      "componentType": 5126,
      "count": 5533,
      "max": [
        0.8367185592651367,
        0.6658232808113098
      ],
      "min": [
        0.000522073358297348,
        0.0005685687065124512
      ],
      "type": "VEC2"
    },
    {
      "bufferView": 1,
      "byteOffset": 108200,
      "componentType": 5126,
      "count": 5533,
      "max": [
        0.8367185592651367,
        0.6658232808113098
      ],
      "min": [
        0.000522073358297348,
        0.0005685687065124512
      ],
      "type": "VEC2"
    },
    {
      "bufferView": 1,
      "byteOffset": 152464,
      "componentType": 5126,
      "count": 5533,
      "max": [
        0.8367185592651367,
        0.6658232808113098
      ],
      "min": [
        0.000522073358297348,
        0.0005685687065124512
      ],
      "type": "VEC2"
    },
    {
      "bufferView": 0,
      "byteOffset": 51792,
      "componentType": 5125,
      "count": 29340,
      "type": "SCALAR"
    },
    {
      "bufferView": 2,
      "byteOffset": 196728,
      "componentType": 5126,
      "count": 2725,
      "max": [
        1.2487961053848267,
        1.882779836654663,
        1.6196130514144897
      ],
      "min": [
        -1.2374073266983032,
        0.007446959614753723,
        -1.6263172626495361
      ],
      "type": "VEC3"
    },
    {
      "bufferView": 2,
      "byteOffset": 229428,
      "componentType": 5126,
      "count": 2725,
      "max": [
        0.9996262192726135,
        0.9999999403953552,
        0.9995206594467163
      ],
      "min": [
        -0.9993759989738464,
        -0.9999920725822449,
        -0.9996731281280518
      ],
      "type": "VEC3"
    },
    {
      "bufferView": 1,
      "byteOffset": 196728,
      "componentType": 5126,
      "count": 2725,
      "max": [
        0.68553626537323,
        0.5425707697868347
      ],
      "min": [
        0.0004992987960577011,
        0.0004904270172119141
      ],
      "type": "VEC2"
    },
    {
      "bufferView": 1,
      "byteOffset": 218528,
      "componentType": 5126,
      "count": 2725,
      "max": [
        0.68553626537323,
        0.5425707697868347
      ],
      "min": [
        0.0004992987960577011,
        0.0004904270172119141
      ],
      "type": "VEC2"
    },
    {
      "bufferView": 1,
      "byteOffset": 240328,
      "componentType": 5126,
      "count": 2725,
      "max": [
        0.68553626537323,
        0.5425707697868347
      ],
      "min": [
        0.0004992987960577011,
        0.0004904270172119141
      ],
      "type": "VEC2"
    },
    {
      "bufferView": 0,
      "byteOffset": 169152,
      "componentType": 5125,
      "count": 12990,
      "type": "SCALAR"
    }
  ],
  "asset": {
    "extras": {
      "author": "SirMalhare (https://sketchfab.com/SirMalhare)",
      "license": "CC-BY-4.0 (http://creativecommons.org/licenses/by/4.0/)",
      "source": "https://sketchfab.com/3d-models/mr-doge-056147a63d2b499fbc973a757c49c402",
      "title": "Mr Doge"
    },
    "generator": "Sketchfab-12.66.0",
    "version": "2.0"
  },
  "bufferViews": [
    {
      "buffer": 0,
      "byteLength": 221112,
      "name": "floatBufferViews",
      "target": 34963
    },
    {
      "buffer": 0,
      "byteLength": 262128,
      "byteOffset": 221112,
      "byteStride": 8,
      "name": "floatBufferViews",
      "target": 34962
    },
    {
      "buffer": 0,
      "byteLength": 262128,
      "byteOffset": 483240,
      "byteStride": 12,
      "name": "floatBufferViews",
      "target": 34962
    }
  ],
  "buffers": [
    {
      "byteLength": 745368,
      "uri": "scene.bin"
    }
  ],
  "extensionsRequired": [
    "KHR_materials_pbrSpecularGlossiness"
  ],
  "extensionsUsed": [
    "KHR_materials_pbrSpecularGlossiness"
  ],
  "images": [
    {
      "uri": "textures/material_diffuse.png"
    },
    {
      "uri": "textures/material_specularGlossiness.png"
    },
    {
      "uri": "textures/material_1_diffuse.png"
    },
    {
      "uri": "textures/material_1_specularGlossiness.png"
    },
    {
      "uri": "textures/material_2_diffuse.png"
    },
    {
      "uri": "textures/material_2_specularGlossiness.png"
    },
    {
      "uri": "textures/material_3_diffuse.png"
    },
    {
      "uri": "textures/material_3_specularGlossiness.png"
    },
    {
      "uri": "textures/material_4_diffuse.png"
    },
    {
      "uri": "textures/material_4_specularGlossiness.png"
    }
  ],
  "materials": [
    {
      "doubleSided": true,
      "extensions": {
        "KHR_materials_pbrSpecularGlossiness": {
          "diffuseFactor": [
            1.0,
            1.0,
            1.0,
            1.0
          ],
          "diffuseTexture": {
            "index": 0
          },
          "glossinessFactor": 1.0,
          "specularFactor": [
            1.0,
            1.0,
            1.0
          ],
          "specularGlossinessTexture": {
            "index": 1
          }
        }
      },
      "name": "material"
    },
    {
      "doubleSided": true,
      "extensions": {
        "KHR_materials_pbrSpecularGlossiness": {
          "diffuseFactor": [
            1.0,
            1.0,
            1.0,
            1.0
          ],
          "diffuseTexture": {
            "index": 2
          },
          "glossinessFactor": 1.0,
          "specularFactor": [
            1.0,
            1.0,
            1.0
          ],
          "specularGlossinessTexture": {
            "index": 3
          }
        }
      },
      "name": "material_1"
    },
    {
      "doubleSided": true,
      "extensions": {
        "KHR_materials_pbrSpecularGlossiness": {
          "diffuseFactor": [
            1.0,
            1.0,
            1.0,
            1.0
          ],
          "diffuseTexture": {
            "index": 4
          },
          "glossinessFactor": 1.0,
          "specularFactor": [
            1.0,
            1.0,
            1.0
          ],
          "specularGlossinessTexture": {
            "index": 5
          }
        }
      },
      "name": "material_2"
    },
    {
      "doubleSided": true,
      "extensions": {
        "KHR_materials_pbrSpecularGlossiness": {
          "diffuseFactor": [
            1.0,
            1.0,
            1.0,
            1.0
          ],
          "diffuseTexture": {
            "index": 6
          },
          "glossinessFactor": 1.0,
          "specularFactor": [
            1.0,
            1.0,
            1.0
          ],
          "specularGlossinessTexture": {
            "index": 7
          }
        }
      },
      "name": "material_3"
    },
    {
      "doubleSided": true,
      "extensions": {
        "KHR_materials_pbrSpecularGlossiness": {
          "diffuseFactor": [
            1.0,
            1.0,
            1.0,
            1.0
          ],
          "diffuseTexture": {
            "index": 8
          },
          "glossinessFactor": 1.0,
          "specularFactor": [
            1.0,
            1.0,
            1.0
          ],
          "specularGlossinessTexture": {
            "index": 9
          }
        }
      },
      "name": "material_4"
    }
  ],
  "meshes": [
    {
      "name": "Object_0",
      "primitives": [
        {
          "attributes": {
            "NORMAL": 1,
            "POSITION": 0,
            "TEXCOORD_0": 2,
            "TEXCOORD_1": 3,
            "TEXCOORD_2": 4
          },
          "indices": 5,
          "material": 0,
          "mode": 4
        }
      ]
    },
    {
      "name": "Object_1",
      "primitives": [
        {
          "attributes": {
            "NORMAL": 7,
            "POSITION": 6,
            "TEXCOORD_0": 8,
            "TEXCOORD_1": 9,
            "TEXCOORD_2": 10
          },
          "indices": 11,
          "material": 1,
          "mode": 4
        }
      ]
    },
    {
      "name": "Object_2",
      "primitives": [
        {
          "attributes": {
            "NORMAL": 13,
            "POSITION": 12,
            "TEXCOORD_0": 14,
            "TEXCOORD_1": 15,
            "TEXCOORD_2": 16
          },
          "indices": 17,
          "material": 2,
          "mode": 4
        }
      ]
    },
    {
      "name": "Object_3",
      "primitives": [
        {
          "attributes": {
            "NORMAL": 19,
            "POSITION": 18,
            "TEXCOORD_0": 20,
            "TEXCOORD_1": 21,
            "TEXCOORD_2": 22
          },
          "indices": 23,
          "material": 3,
          "mode": 4
        }
      ]
    },
    {
      "name": "Object_4",
      "primitives": [
        {
          "attributes": {
            "NORMAL": 25,
            "POSITION": 24,
            "TEXCOORD_0": 26,
            "TEXCOORD_1": 27,
            "TEXCOORD_2": 28
          },
          "indices": 29,
          "material": 4,
          "mode": 4
        }
      ]
    }
  ],
  "nodes": [
    {
      "children": [
        1
      ],
      "matrix": [
        1.0,
        0.0,
        0.0,
        0.0,
        0.0,
        2.220446049250313e-16,
        -1.0,
        0.0,
        0.0,
        1.0,
        2.220446049250313e-16,
        0.0,
        0.0,
        0.0,
        0.0,
        1.0
      ],
      "name": "Sketchfab_model"
    },
    {
      "children": [
        2
      ],
      "name": "root"
    },
    {
      "children": [
        3
      ],
      "matrix": [
        1.0,
        0.0,
        0.0,
        0.0,
        0.0,
        2.220446049250313e-16,
        1.0,
        0.0,
        0.0,
        -1.0,
        2.220446049250313e-16,
        0.0,
        0.0,
        0.0,
        0.0,
        1.0
      ],
      "name": "GLTF_SceneRootNode"
    },
    {
      "children": [
        4,
        17,
        19
      ],
      "name": "root_4"
    },
    {
      "children": [
        5,
        9,
        13
      ],
      "matrix": [
        0.0005799559752824559,
        -5.822985851632464e-07,
        1.2221880071417697e-05,
        0.0,
        -1.6734810700489065e-14,
        0.0005794277720167563,
        2.7606225849339847e-05,
        0.0,
        -1.2235742481636178e-05,
        -2.7600081179708372e-05,
        0.0005792988013831558,
        0.0,
        0.007505764253437519,
        0.019581735134124756,
        0.27654969692230225,
        1.0
      ],
      "name": "node_id43_5"
    },
    {
      "children": [
        6
      ],
      "matrix": [
        370.7342834472656,
        0.0,
        0.0,
        0.0,
        0.0,
        6.250110207523874e-05,
        -370.7341308593697,
        0.0,
        0.0,
        370.7341308593697,
        6.250110207523874e-05,
        0.0,
        0.0,
        116.69947814941406,
        522.9260864257813,
        1.0
      ],
      "name": "node_id31_3"
    },
    {
      "children": [
        7
      ],
      "name": "node_id32_6"
    },
    {
      "children": [
        8
      ],
      "name": "node_id33_7"
    },
    {
      "mesh": 0,
      "name": "Object_8"
    },
    {
      "children": [
        10
      ],
      "matrix": [
        370.7342834472656,
        0.0,
        0.0,
        0.0,
        0.0,
        6.250110207523874e-05,
        -370.7341308593697,
        0.0,
        0.0,
        370.7341308593697,
        6.250110207523874e-05,
        0.0,
        0.0,
        116.69947814941406,
        522.9260864257813,
        1.0
      ],
      "name": "node_id35_8"
    },
    {
      "children": [
        11
      ],
      "name": "node_id36_9"
    },
    {
      "children": [
        12
      ],
      "name": "node_id37_10"
    },
    {
      "mesh": 1,
      "name": "Object_12"
    },
    {
      "children": [
        14
      ],
      "matrix": [
        370.7342834472656,
        0.0,
        0.0,
        0.0,
        0.0,
        6.250110207523874e-05,
        -370.7341308593697,
        0.0,
        0.0,
        370.7341308593697,
        6.250110207523874e-05,
        0.0,
        0.0,
        116.69947814941406,
        522.9260864257813,
        1.0
      ],
      "name": "node_id39_1"
    },
    {
      "children": [
        15
      ],
      "name": "node_id40_2"
    },
    {
      "children": [
        16
      ],
      "name": "node_id41_11"
    },
    {
      "mesh": 2,
      "name": "Object_16"
    },
    {
      "children": [
        18
      ],
      "matrix": [
        0.009886244405745374,
        -0.0004954765991492022,
        0.0005122205642097229,
        0.0,
        -2.4371212878410768e-11,
        0.007124243887880184,
        0.00689136013010765,
        0.0,
        -0.0007126477890692927,
        -0.006873524460142725,
        0.007105805484182947,
        0.0,
        -0.0003552211564965546,
        -0.07499498128890991,
        0.5597755312919617,
        1.0
      ],
      "name": "node_id48_0"
    },
    {
      "mesh": 3,
      "name": "Object_18"
    },
    {
      "children": [
        20
      ],
      "matrix": [
        0.025916088800494605,
        0.012429116866152279,
        -0.0011036101682184588,
        0.0,
        -0.014430531368897406,
        0.029853889916862913,
        -0.0026507962621043738,
        0.0,
        -1.5005839264337834e-12,
        0.0022305341708847713,
        0.02512079957521357,
        0.0,
        -0.04456963390111923,
        0.11953462660312653,
        0.551674485206604,
        1.0
      ],
      "name": "node_id62_12"
    },
    {
      "mesh": 4,
      "name": "Object_20"
    }
  ],
  "samplers": [
    {
      "magFilter": 9729,
      "minFilter": 9987,
      "wrapS": 10497,
      "wrapT": 10497
    }
  ],
  "scene": 0,
  "scenes": [
    {
      "name": "Sketchfab_Scene",
      "nodes": [
        0
      ]
    }
  ],
  "textures": [
    {
      "sampler": 0,
      "source": 0
    },
    {
      "sampler": 0,
      "source": 1
    },
    {
      "sampler": 0,
      "source": 2
    },
    {
      "sampler": 0,
      "source": 3
    },
    {
      "sampler": 0,
      "source": 4
    },
    {
      "sampler": 0,
      "source": 5
    },
    {
      "sampler": 0,
      "source": 6
    },
    {
      "sampler": 0,
      "source": 7
    },
    {
      "sampler": 0,
      "source": 8
    },
    {
      "sampler": 0,
      "source": 9
    }
  ]
}
